<svg id="visual" viewBox="0 0 1920 300" width="1920" height="300" xmlns="http://www.w3.org/2000/svg" xmlns:xlink="http://www.w3.org/1999/xlink" version="1.1"><rect x="0" y="0" width="1920" height="300" fill="#fff"></rect><path d="M0 185L11.8 184C23.7 183 47.3 181 71 183.3C94.7 185.7 118.3 192.3 142 208.3C165.7 224.3 189.3 249.7 213 255C236.7 260.3 260.3 245.7 284.2 239.7C308 233.7 332 236.3 355.8 242.5C379.7 248.7 403.3 258.3 427 257.5C450.7 256.7 474.3 245.3 498 240.5C521.7 235.7 545.3 237.3 569 243.7C592.7 250 616.3 261 640 251C663.7 241 687.3 210 711 198.2C734.7 186.3 758.3 193.7 782 195.5C805.7 197.3 829.3 193.7 853 198.8C876.7 204 900.3 218 924.2 231.2C948 244.3 972 256.7 995.8 246.8C1019.7 237 1043.3 205 1067 190.8C1090.7 176.7 1114.3 180.3 1138 191.3C1161.7 202.3 1185.3 220.7 1209 232.2C1232.7 243.7 1256.3 248.3 1280 252.3C1303.7 256.3 1327.3 259.7 1351 256.8C1374.7 254 1398.3 245 1422 245.5C1445.7 246 1469.3 256 1493 247.7C1516.7 239.3 1540.3 212.7 1564.2 205.3C1588 198 1612 210 1635.8 224.2C1659.7 238.3 1683.3 254.7 1707 246.3C1730.7 238 1754.3 205 1778 197.3C1801.7 189.7 1825.3 207.3 1849 224.2C1872.7 241 1896.3 257 1908.2 265L1920 273L1920 301L1908.2 301C1896.3 301 1872.7 301 1849 301C1825.3 301 1801.7 301 1778 301C1754.3 301 1730.7 301 1707 301C1683.3 301 1659.7 301 1635.8 301C1612 301 1588 301 1564.2 301C1540.3 301 1516.7 301 1493 301C1469.3 301 1445.7 301 1422 301C1398.3 301 1374.7 301 1351 301C1327.3 301 1303.7 301 1280 301C1256.3 301 1232.7 301 1209 301C1185.3 301 1161.7 301 1138 301C1114.3 301 1090.7 301 1067 301C1043.3 301 1019.7 301 995.8 301C972 301 948 301 924.2 301C900.3 301 876.7 301 853 301C829.3 301 805.7 301 782 301C758.3 301 734.7 301 711 301C687.3 301 663.7 301 640 301C616.3 301 592.7 301 569 301C545.3 301 521.7 301 498 301C474.3 301 450.7 301 427 301C403.3 301 379.7 301 355.8 301C332 301 308 301 284.2 301C260.3 301 236.7 301 213 301C189.3 301 165.7 301 142 301C118.3 301 94.7 301 71 301C47.3 301 23.7 301 11.8 301L0 301Z" fill="#303952" stroke-linecap="round" stroke-linejoin="miter"></path></svg>