<svg id="visual" viewBox="0 0 1920 300" width="1920" height="300" xmlns="http://www.w3.org/2000/svg" xmlns:xlink="http://www.w3.org/1999/xlink" version="1.1"><rect x="0" y="0" width="1920" height="300" fill="#fff"></rect><path d="M0 74L11.8 75.7C23.7 77.3 47.3 80.7 71 72.8C94.7 65 118.3 46 142 47C165.7 48 189.3 69 213 83C236.7 97 260.3 104 284.2 102.2C308 100.3 332 89.7 355.8 79C379.7 68.3 403.3 57.7 427 58.7C450.7 59.7 474.3 72.3 498 78.5C521.7 84.7 545.3 84.3 569 77C592.7 69.7 616.3 55.3 640 55.8C663.7 56.3 687.3 71.7 711 85.3C734.7 99 758.3 111 782 114C805.7 117 829.3 111 853 111.2C876.7 111.3 900.3 117.7 924.2 113.3C948 109 972 94 995.8 86C1019.7 78 1043.3 77 1067 78C1090.7 79 1114.3 82 1138 86.5C1161.7 91 1185.3 97 1209 103C1232.7 109 1256.3 115 1280 117.5C1303.7 120 1327.3 119 1351 108.7C1374.7 98.3 1398.3 78.7 1422 71.8C1445.7 65 1469.3 71 1493 77.3C1516.7 83.7 1540.3 90.3 1564.2 89.8C1588 89.3 1612 81.7 1635.8 72C1659.7 62.3 1683.3 50.7 1707 55.3C1730.7 60 1754.3 81 1778 85.2C1801.7 89.3 1825.3 76.7 1849 79C1872.7 81.3 1896.3 98.7 1908.2 107.3L1920 116L1920 0L1908.2 0C1896.3 0 1872.7 0 1849 0C1825.3 0 1801.7 0 1778 0C1754.3 0 1730.7 0 1707 0C1683.3 0 1659.7 0 1635.8 0C1612 0 1588 0 1564.2 0C1540.3 0 1516.7 0 1493 0C1469.3 0 1445.7 0 1422 0C1398.3 0 1374.7 0 1351 0C1327.3 0 1303.7 0 1280 0C1256.3 0 1232.7 0 1209 0C1185.3 0 1161.7 0 1138 0C1114.3 0 1090.7 0 1067 0C1043.3 0 1019.7 0 995.8 0C972 0 948 0 924.2 0C900.3 0 876.7 0 853 0C829.3 0 805.7 0 782 0C758.3 0 734.7 0 711 0C687.3 0 663.7 0 640 0C616.3 0 592.7 0 569 0C545.3 0 521.7 0 498 0C474.3 0 450.7 0 427 0C403.3 0 379.7 0 355.8 0C332 0 308 0 284.2 0C260.3 0 236.7 0 213 0C189.3 0 165.7 0 142 0C118.3 0 94.7 0 71 0C47.3 0 23.7 0 11.8 0L0 0Z" fill="#303952" stroke-linecap="round" stroke-linejoin="miter"></path></svg>